{"title":"TANU WEDS MANU (2015) 2CD pDVDRIP (New Source) - X264 AC3 5.1 (U","uid":11957413,"size":1477878694,"categoryP":"video","categoryS":"other","magnet":"?xt=urn:btih:c8cc7e47bb96c60e60176829757cfe80d338dba9&amp;dn=TANU+WEDS+MANU+%282015%29+2CD+pDVDRIP+%28New+Source%29+-+X264+AC3+5.1+%28U&amp;tr=udp%3A%2F%2Ftracker.openbittorrent.com%3A80&amp;tr=udp%3A%2F%2Fopen.demonii.com%3A1337&amp;tr=udp%3A%2F%2Ftracker.coppersurfer.tk%3A6969&amp;tr=udp%3A%2F%2Fexodus.desync.com%3A6969","seeders":5,"leechers":3,"uploader":"SS132203","files":24,"time":1432428639,"description":"TANU WEDS MANU (2015) 2CD pDVDRIP (New Source) - X264 AC3 5.1 (UpMixed) - DUS\n &lt;a href=&quot;\nhttp://imgsparrow.co/image/hi&quot; rel=&quot;nofollow&quot; target=&quot;_NEW&quot;&gt;\nhttp://imgsparrow.co/image/hi&lt;/a&gt;\n &lt;a href=&quot;\nhttp://imgsparrow.co/image/bI&quot; rel=&quot;nofollow&quot; target=&quot;_NEW&quot;&gt;\nhttp://imgsparrow.co/image/bI&lt;/a&gt;\n\nInfo : - \n\nAll Credit Goes To Team DUS\nSample Within Torrent\n\n2CD pDVD RIP (New Source) - X264 - AC3 5.1 (UpMixed) - CHAPTERS\n\nYear.............: 2015\nRipper...........: Apka Sallu\nSource...........: DUS Warehouse\nContainer........: MKV\nResolution.......: 720 x 292\nOverall Bitrate..: 757 Kbps\nAudio Language...: Hindi\nRun Time.........: 2hrs 09Mnts\nAudio............: AC3 5.1 (UpMix)\nSubtitle.........: None on Source\nFrame rate.......: 23.976 fps\n\nFormat                                   : Matroska\nFormat version                           : Version 2\nFile size                                : 1.36 GiB\nDuration                                 : 2h 9mn\nOverall bit rate                         : 1 505 Kbps\nEncoded date                             : UTC 2015-05-24 07:52:40\nWriting application                      : mkvmerge v7.7.0 ('Six Voices') 32bit built on Feb 28 2015 23:23:00\nWriting library                          : libebml v1.3.1 + libmatroska v1.4.2\n_STATISTICS_WRITING_APP                  : mkvmerge v7.7.0 ('Six Voices') 32bit built on Feb 28 2015 23:23:00\n_STATISTICS_WRITING_DATE_UTC             : 2015-05-24 07:52:40\n_STATISTICS_TAGS                         : BPS DURATION NUMBER_OF_FRAMES NUMBER_OF_BYTES\nDURATION                                 : 02:09:47.872000000\nNUMBER_OF_FRAMES                         : 243371\nNUMBER_OF_BYTES                          : 373817856\n\nVideo\nID                                       : 1\nFormat                                   : AVC\nFormat/Info                              : Advanced Video Codec\nFormat profile                           : &lt;a class=&quot;__cf_email__&quot; href=&quot;/cdn-cgi/l/email-protection&quot; data-cfemail=&quot;eea6878986aea2ddc0de&quot;&gt;[email&amp;#160;protected]&lt;/a&gt;&lt;script data-cfhash='f9e31' type=&quot;text/javascript&quot;&gt;\n/* &lt;![CDATA[ */!function(){try{var t=&quot;currentScript&quot;in document?document.currentScript:function(){for(var t=document.getElementsByTagName(&quot;script&quot;),e=t.length;e--;)if(t[e].getAttribute(&quot;data-cfhash&quot;))return t[e]}();if(t&amp;&amp;t.previousSibling){var e,r,n,i,c=t.previousSibling,a=c.getAttribute(&quot;data-cfemail&quot;);if(a){for(e=&quot;&quot;,r=parseInt(a.substr(0,2),16),n=2;a.length-n;n+=2)i=parseInt(a.substr(n,2),16)^r,e+=String.fromCharCode(i);e=document.createTextNode(e),c.parentNode.replaceChild(e,c)}t.parentNode.removeChild(t);}}catch(u){}}()/* ]]&gt; */&lt;/script&gt;\nFormat settings, CABAC                   : Yes\nFormat settings, ReFrames                : 4 frames\nCodec ID                                 : V_MPEG4/ISO/AVC\nDuration                                 : 2h 9mn\nBit rate                                 : 1 119 Kbps\nWidth                                    : 720 pixels\nHeight                                   : 304 pixels\nDisplay aspect ratio                     : 2.2:1\nFrame rate                               : 29.970 fps\nColor space                              : YUV\nChroma subsampling                       : 4:2:0\nBit depth                                : 8 bits\nScan type                                : Progressive\nBits/(Pixel*Frame)                       : 0.171\nStream size                              : 1 013 MiB (72%)\nWriting library                          : x264 core 146 r2538 121396c\nEncoding settings                        : cabac=1 / ref=3 / deblock=1:0:0 / analyse=0x3:0x113 / me=hex / subme=7 / psy=1 / psy_rd=1.00:0.00 / mixed_ref=1 / me_range=16 / chroma_me=1 / trellis=1 / 8x8dct=1 / cqm=0 / deadzone=21,11 / fast_pskip=1 / chroma_qp_offset=-2 / threads=12 / lookahead_threads=2 / sliced_threads=0 / nr=0 / decimate=1 / interlaced=0 / bluray_compat=0 / constrained_intra=0 / bframes=3 / b_pyramid=2 / b_adapt=1 / b_bias=0 / direct=1 / weightb=1 / open_gop=0 / weightp=2 / keyint=300 / keyint_min=29 / scenecut=40 / intra_refresh=0 / rc_lookahead=40 / rc=2pass / mbtree=1 / bitrate=1119 / ratetol=1.0 / qcomp=0.60 / qpmin=0 / qpmax=69 / qpstep=4 / cplxblur=20.0 / qblur=0.5 / ip_ratio=1.40 / aq=1:1.00\nDefault                                  : Yes\nForced                                   : No\n\nAudio\nID                                       : 2\nFormat                                   : AC-3\nFormat/Info                              : Audio Coding 3\nMode extension                           : CM (complete main)\nCodec ID                                 : A_AC3\nDuration                                 : 2h 9mn\nBit rate mode                            : Constant\nBit rate                                 : 384 Kbps\nChannel(s)                               : 6 channels\nChannel positions                        : Front: L C R, Side: L R, LFE\nSampling rate                            : 48.0 KHz\nBit depth                                : 16 bits\nCompression mode                         : Lossy\nStream size                              : 357 MiB (26%)\nLanguage                                 : Hindi\nDefault                                  : Yes\nForced                                   : No\n\nMenu\n00:00:00.000                             : en:00:00:00.000\n00:06:17.960                             : en:00:06:17.960\n00:07:53.598                             : en:00:07:53.598\n00:12:04.890                             : en:00:12:04.890\n00:14:00.464                             : en:00:14:00.464\n00:20:00.574                             : en:00:20:00.574\n00:24:00.230                             : en:00:24:00.230\n00:26:53.278                             : en:00:26:53.278\n00:31:41.899                             : en:00:31:41.899\n00:33:33.428                             : en:00:33:33.428\n00:35:43.849                             : en:00:35:43.849\n00:43:31.859                             : en:00:43:31.859\n00:49:23.627                             : en:00:49:23.627\n00:54:29.974                             : en:00:54:29.974\n00:59:56.050                             : en:00:59:56.050\n01:05:10.197                             : en:01:05:10.197\n01:11:36.417                             : en:01:11:36.417\n01:15:11.006                             : en:01:15:11.006\n01:20:29.115                             : en:01:20:29.115\n01:24:41.910                             : en:01:24:41.910\n01:36:04.800                             : en:01:36:04.800\n01:37:55.786                             : en:01:37:55.786\n01:44:33.099                             : en:01:44:33.099\n01:48:15.488                             : en:01:48:15.488\n01:53:53.868                             : en:01:53:53.868\n01:55:32.884                             : en:01:55:32.884\n01:58:38.819                             : en:01:58:38.819\n02:03:53.868                             : en:02:03:53.868\n02:08:32.884                             : en:02:08:32.884\n\nScreens : - \n &lt;a href=&quot;\nhttp://imgsparrow.co/image/je&quot; rel=&quot;nofollow&quot; target=&quot;_NEW&quot;&gt;\nhttp://imgsparrow.co/image/je&lt;/a&gt; &lt;a href=&quot;\nhttp://imgsparrow.co/image/jg&quot; rel=&quot;nofollow&quot; target=&quot;_NEW&quot;&gt;\nhttp://imgsparrow.co/image/jg&lt;/a&gt; &lt;a href=&quot;\nhttp://imgsparrow.co/image/jq&quot; rel=&quot;nofollow&quot; target=&quot;_NEW&quot;&gt;\nhttp://imgsparrow.co/image/jq&lt;/a&gt; &lt;a href=&quot;\nhttp://imgsparrow.co/image/jz&quot; rel=&quot;nofollow&quot; target=&quot;_NEW&quot;&gt;\nhttp://imgsparrow.co/image/jz&lt;/a&gt; &lt;a href=&quot;\nhttp://imgsparrow.co/image/j7&quot; rel=&quot;nofollow&quot; target=&quot;_NEW&quot;&gt;\nhttp://imgsparrow.co/image/j7&lt;/a&gt; &lt;a href=&quot;\nhttp://imgsparrow.co/image/jk&quot; rel=&quot;nofollow&quot; target=&quot;_NEW&quot;&gt;\nhttp://imgsparrow.co/image/jk&lt;/a&gt; &lt;a href=&quot;\nhttp://imgsparrow.co/image/jn&quot; rel=&quot;nofollow&quot; target=&quot;_NEW&quot;&gt;\nhttp://imgsparrow.co/image/jn&lt;/a&gt; &lt;a href=&quot;\nhttp://imgsparrow.co/image/jy&quot; rel=&quot;nofollow&quot; target=&quot;_NEW&quot;&gt;\nhttp://imgsparrow.co/image/jy&lt;/a&gt; &lt;a href=&quot;\nhttp://imgsparrow.co/image/j5&quot; rel=&quot;nofollow&quot; target=&quot;_NEW&quot;&gt;\nhttp://imgsparrow.co/image/j5&lt;/a&gt; &lt;a href=&quot;\nhttp://imgsparrow.co/image/jA&quot; rel=&quot;nofollow&quot; target=&quot;_NEW&quot;&gt;\nhttp://imgsparrow.co/image/jA&lt;/a&gt;\n &lt;a href=&quot;\nhttp://imgsparrow.co/image/N2&quot; rel=&quot;nofollow&quot; target=&quot;_NEW&quot;&gt;\nhttp://imgsparrow.co/image/N2&lt;/a&gt;","torrent":{"xt":"urn:btih:c8cc7e47bb96c60e60176829757cfe80d338dba9","amp;dn":"TANU+WEDS+MANU+%282015%29+2CD+pDVDRIP+%28New+Source%29+-+X264+AC3+5.1+%28U","amp;tr":["udp%3A%2F%2Ftracker.openbittorrent.com%3A80","udp%3A%2F%2Fopen.demonii.com%3A1337","udp%3A%2F%2Ftracker.coppersurfer.tk%3A6969","udp%3A%2F%2Fexodus.desync.com%3A6969"],"infoHash":"c8cc7e47bb96c60e60176829757cfe80d338dba9","infoHashBuffer":{"type":"Buffer","data":[200,204,126,71,187,150,198,14,96,23,104,41,117,124,254,128,211,56,219,169]},"announce":[],"urlList":[]}}